<?xml version="1.0" encoding="UTF-8" standalone="no"?>
<!DOCTYPE svg PUBLIC "-//W3C//DTD SVG 1.1//EN" "http://www.w3.org/Graphics/SVG/1.1/DTD/svg11.dtd">
<svg width="100%" height="100%" viewBox="0 0 176 176" version="1.1" xmlns="http://www.w3.org/2000/svg" xmlns:xlink="http://www.w3.org/1999/xlink" xml:space="preserve" xmlns:serif="http://www.serif.com/" style="fill-rule:evenodd;clip-rule:evenodd;stroke-linejoin:round;stroke-miterlimit:1.41421;">
    <path id="Circle" d="M88,0C136.569,0 176,39.431 176,88C176,136.569 136.569,176 88,176C39.431,176 0,136.569 0,88C0,39.431 39.431,0 88,0ZM103,121C103,125.125 101.531,128.656 98.594,131.594C95.656,134.531 92.125,136 88,136C83.875,136 80.344,134.531 77.406,131.594C74.469,128.656 73,125.125 73,121C73,116.875 74.469,113.344 77.406,110.406C80.344,107.469 83.875,106 88,106C92.125,106 95.656,107.469 98.594,110.406C101.531,113.344 103,116.875 103,121ZM94.187,100C95.438,100 96.5,99.594 97.375,98.781C98.25,97.969 98.687,96.937 98.687,95.687L101.312,44.688C101.312,43.438 100.875,42.344 100,41.406C99.125,40.469 98.062,40 96.812,40L79.188,40C77.938,40 76.875,40.469 76,41.406C75.125,42.344 74.688,43.438 74.688,44.688L77.313,95.687C77.313,96.937 77.75,97.969 78.625,98.781C79.5,99.594 80.563,100 81.813,100L94.187,100Z"/>
</svg>
